<?xml version="1.0" encoding="utf-8"?>
<!-- Generator: Adobe Illustrator 18.1.1, SVG Export Plug-In . SVG Version: 6.00 Build 0)  -->
<!DOCTYPE svg PUBLIC "-//W3C//DTD SVG 1.1//EN" "http://www.w3.org/Graphics/SVG/1.1/DTD/svg11.dtd">
<svg version="1.1" id="Layer_1" xmlns="http://www.w3.org/2000/svg" xmlns:xlink="http://www.w3.org/1999/xlink" x="0px" y="0px"
	 width="35px" height="40px" viewBox="0 0 35 40" enable-background="new 0 0 35 40" xml:space="preserve">
<g>
	<path fill-rule="evenodd" clip-rule="evenodd" fill="#0071A9" d="M16.2,0.6c-0.1,1.2-0.3,2.4-1,3.3c-1.5,1.7-3.6,2.8-5.3,3.6
		c-4.3,2.1-9.3,7.1-9.3,15c0,3.8,1.5,8,4.3,11.1c3,3.4,7.4,5.7,12.7,5.7c4.7,0,8.6-1.6,11.5-4.1c3.4-2.9,5.5-7.3,5.5-12.7
		c0-4-1.2-7.5-3.4-10.2c-4.3-5.3-7.8-5.7-10-7C19.5,4.4,18,2.8,16.2,0.6L16.2,0.6z"/>
	<g>
		<defs>
			<path id="SVGID_3_" d="M16.2,0.6c-0.1,1.2-0.3,2.4-1,3.3c-1.5,1.7-3.6,2.8-5.3,3.6c-4.3,2.1-9.3,7.1-9.3,15c0,3.8,1.5,8,4.3,11.1
				c3,3.4,7.4,5.7,12.7,5.7c4.7,0,8.6-1.6,11.5-4.1c3.4-2.9,5.5-7.3,5.5-12.7c0-4-1.2-7.5-3.4-10.2c-4.3-5.3-7.8-5.7-10-7
				C19.5,4.4,18,2.8,16.2,0.6L16.2,0.6z"/>
		</defs>
		<clipPath id="SVGID_1_">
			<use xlink:href="#SVGID_3_"  overflow="visible"/>
		</clipPath>
		<path clip-path="url(#SVGID_1_)" fill-rule="evenodd" clip-rule="evenodd" fill="#46B8E2" d="M36.4,19.1l2,7l-2.4,6.1H-0.7
			c0,0-2.5-11.6-2.4-15.2l16.8-27.6L32.8,1.9L36.4,19.1L36.4,19.1z"/>
		<g clip-path="url(#SVGID_1_)">
			<path fill-rule="evenodd" clip-rule="evenodd" fill="#D54531" d="M29,21.7c-0.1-0.5,0.3-1.7,0.5-2.5c0.2-0.9,0.4-1.8,0.5-2.5
				c-1,0.3-2.7,1.7-3.7,1.8c-0.6,0-0.6-1.5-0.9-2.1c-0.5,0.6-1,1.5-1.6,2.4c-0.3,0.4-1.2,2.4-1.9,2.4c-0.6-0.1-0.3-1.4-0.2-2.1
				c0.3-2.6,0.6-4.9,0.9-7.2c-0.9,0.2-1.4,1.5-2.3,1.4c-0.6-0.1-1.1-1.9-1.4-2.7c-0.5-1.1-1-2.1-1.3-2.9c0,0,0-0.1-0.1-0.1
				c-0.4,0.9-0.7,1.8-1.3,3.1c-0.4,1-0.9,2.6-1.5,2.6c-0.9,0.1-1.4-1.1-2.3-1.3c0.4,2.3,0.7,4.7,1,7.2c0.1,0.7,0.5,2.1-0.2,2.1
				c-0.5,0-0.7-0.7-1-1C11.6,18.9,11,18,10.3,17c-0.1-0.2-0.3-0.4-0.4-0.4c-0.4,0.7-0.2,2.1-0.9,2.1c-0.5,0-1.3-0.5-1.9-0.8
				c-0.6-0.3-1.3-0.7-1.8-0.9c0.2,0.7,0.3,1.5,0.6,2.5C6,19.9,6.5,21.5,6.4,22c-0.1,0.6-1.1,0.2-1.5,0.3c1.6,2.4,3.4,5.6,5.7,7.4
				c2.2,1.8,4.8,2.2,7.2,2c1.7-0.1,3.5-0.4,5.2-0.9c3.2-0.9,5.6-5.9,7.6-8.8C30,21.9,29.1,22.4,29,21.7z"/>
		</g>
		<path clip-path="url(#SVGID_1_)" fill="#FFFFFF" d="M19.5,33h12.7l0.4-5.2l0.1-0.1L32.1,25h-1.4l-0.8,1.9h-2.5L26.7,25h-1.4
			l-0.9,1.9h-5V17l-0.6-0.1c0,0-0.8-5.2-1.1-5.2c-0.4,0-1.2,5.2-1.2,5.2l-0.6,0.1v10h-5L10.1,25H8.7l-0.8,1.9H5.4L4.7,25H3.3
			l-0.7,2.6l0.1,0.1L3.2,33h12.7H19.5z"/>
		
			<ellipse clip-path="url(#SVGID_1_)" fill-rule="evenodd" clip-rule="evenodd" fill="#0071A9" cx="17.7" cy="34.5" rx="17.9" ry="3.3"/>
	</g>
	<path fill="none" d="M16.2,0.6c-0.1,1.2-0.3,2.4-1,3.3c-1.5,1.7-3.6,2.8-5.3,3.6c-4.3,2.1-9.3,7.1-9.3,15c0,3.8,1.5,8,4.3,11.1
		c3,3.4,7.4,5.7,12.7,5.7c4.7,0,8.6-1.6,11.5-4.1c3.4-2.9,5.5-7.3,5.5-12.7c0-4-1.2-7.5-3.4-10.2c-4.3-5.3-7.8-5.7-10-7
		C19.5,4.4,18,2.8,16.2,0.6L16.2,0.6z"/>
</g>
</svg>
