<?xml version="1.0" encoding="utf-8"?>
<!-- Generator: Adobe Illustrator 18.1.1, SVG Export Plug-In . SVG Version: 6.00 Build 0)  -->
<!DOCTYPE svg PUBLIC "-//W3C//DTD SVG 1.1//EN" "http://www.w3.org/Graphics/SVG/1.1/DTD/svg11.dtd">
<svg version="1.1" id="Layer_2" xmlns="http://www.w3.org/2000/svg" xmlns:xlink="http://www.w3.org/1999/xlink" x="0px" y="0px"
	 width="3000px" height="495px" viewBox="0 0 3000 495" enable-background="new 0 0 3000 495" xml:space="preserve">
<g>
	<path fill="#E56770" d="M1528.6,7.3c0,0,1.5,1.2,4.1,1.4v10.7c-2.3-0.2-4.1-0.7-4.1-0.7V7.3z"/>
	<path fill="#E56770" d="M1547.3,6v10.8c0,0-0.2-0.1-0.6-0.1c-0.7-0.1-1.9-0.2-3.3,0V6.4c1.5-0.3,2.7-0.3,3.3-0.4
		C1547.1,6,1547.3,6,1547.3,6z"/>
	<g id="EUwXWQ_1_">
		<g>
			<path fill="#E56770" d="M1538.2,16c0-0.1,0-0.2,0-0.3c0-0.1,0-0.2,0-0.3c0-0.1,0-0.3,0-0.4c0-0.1,0-0.2,0-0.3c0-0.1,0-0.1,0-0.2
				c0-0.1,0-0.1-0.1-0.1c0,0,0,0,0,0c-0.1,0-0.3,0-0.4,0.1c-0.2,0-0.3,0-0.5,0.1c-0.1,0-0.2,0-0.4,0.1c0,0-0.1,0-0.1,0c0,0,0,0,0,0
				c0-0.1,0.1-0.2,0.1-0.4c0-0.1,0-0.2-0.1-0.2c-0.2-0.2-0.4-0.3-0.6-0.5c-0.2-0.2-0.5-0.4-0.7-0.6c0,0,0,0,0,0c0,0,0,0,0,0
				c0.1,0,0.2-0.1,0.3-0.1c0.1,0,0.1-0.1,0.1-0.1c0-0.1,0-0.1-0.1-0.2c-0.1-0.2-0.1-0.5-0.2-0.7c0,0,0,0,0,0c0,0,0,0,0.1,0
				c0.2,0.1,0.5,0.1,0.7,0.2c0.1,0,0.1,0,0.1-0.1c0-0.1,0.1-0.2,0.1-0.4c0,0,0,0,0,0c0.2,0.2,0.4,0.5,0.6,0.7c0,0,0.1,0.1,0.1,0.1
				c0,0,0.1,0,0.1-0.1c0,0,0-0.1,0-0.1c0-0.1,0-0.2,0-0.2c0-0.2-0.1-0.4-0.1-0.6c0-0.2-0.1-0.4-0.1-0.6c0,0,0-0.1,0-0.1c0,0,0,0,0,0
				c0.1,0.1,0.2,0.1,0.4,0.2c0,0,0.1,0,0.1,0c0.1,0,0.1,0,0.1-0.1c0,0,0-0.1,0-0.1c0.2-0.3,0.3-0.6,0.5-0.8c0,0,0,0,0,0c0,0,0,0,0,0
				c0.2,0.3,0.3,0.6,0.5,0.9c0,0,0.1,0.1,0.1,0.1c0,0,0.1,0,0.1,0c0,0,0.1,0,0.1-0.1c0.1,0,0.2-0.1,0.3-0.1c0,0,0,0,0,0
				c0,0,0,0.1,0,0.1c0,0.2-0.1,0.4-0.1,0.6c0,0.2-0.1,0.4-0.1,0.6c0,0.1,0,0.1,0,0.2c0,0,0,0.1,0,0.1c0,0.1,0.1,0.1,0.1,0.1
				c0,0,0.1,0,0.1-0.1c0.2-0.2,0.4-0.5,0.6-0.7c0,0,0,0,0,0c0,0,0,0.1,0,0.1c0,0.1,0,0.2,0.1,0.3c0,0.1,0.1,0.1,0.1,0.1
				c0.3-0.1,0.5-0.1,0.8-0.2c0,0,0,0,0,0c0,0,0,0,0,0c-0.1,0.3-0.1,0.5-0.2,0.8c0,0,0,0.1,0,0.1c0,0.1,0,0.1,0.1,0.1
				c0.1,0,0.2,0.1,0.3,0.1c0,0,0,0,0,0c0,0,0,0,0,0c-0.5,0.4-0.9,0.7-1.4,1.1c-0.1,0.1-0.1,0.1-0.1,0.2c0,0.1,0.1,0.2,0.1,0.4
				c0,0,0,0,0,0c0,0-0.1,0-0.1,0c-0.1,0-0.3,0-0.4-0.1c-0.1,0-0.3,0-0.4-0.1c-0.1,0-0.2,0-0.3,0c-0.1,0-0.1,0-0.2,0c0,0,0,0,0,0
				c0,0-0.1,0.1-0.1,0.1c0,0.2,0,0.4,0,0.6c0,0.2,0,0.5,0,0.7c0,0,0,0,0,0.1C1538.3,16,1538.3,16,1538.2,16z"/>
		</g>
	</g>
	<path fill="#EBEBEB" d="M2994.6,495v269.5H-12V495h22.7l8.5-8.5v-22.7l16.1-16.1V426l9.9-9.9l12.8,12.8v23.6h19.9v21.3h10.9
		l10.9-10.9v-26.5h16.1v50.1h21.7v-35.9h10.4v16.1h27.4v-19.9h27.4v16.1h25.5v-79.4h17v68.1h11.3v-34h16.1v34h24.6v-74.8h31.2v34.1
		h21.7v-52h15.1v30.3h19.9v-56.7h11.3v-22.7h8.5v72.8h18v24.6h18.9v-36.9h17v29.3h28.4v-17h27.4v-14.2h27.4v-52h10.4v35.9h15.1V338
		H612v-13.2h23.6V338h26.5v-28.4h14.2v16.1h50.1l8.5-8.5h27.4V303h15.1v9.5h47.3v-18.9h37.8v10.3h2.8v-13.2h7.2v-12.4h3.2v-11.5h1.8
		v24.5l9.8-0.1v13.5h5v-6.8h7.2v5.8h11v-3.8h3.8v-6.1h9.5v-17.5h8.4v-24.9h34.9v-21.5h2.8v12.4h6.8v-3.8h5.9v3.8h4v-3.9h5.3v3.9h8.4
		v-4h2.6v4.1h3.5v-4h8.3v3h5.3v-3.8h5.8v3.4h6.5v-2.5h4.3v1.8h20.7v11.2h27.9c0,0-0.9-16.8,10.7-16.6c11.6,0.2,10.1,16.7,10.1,16.7
		h4.4v13.4h10v9h10.9v35.7h6.4v-10.2h9v10.6h4.7v-26.7h9v16.5l21-21.4h15.7v-10h26v-5.2h21.3v6.6h33.3l3.6,5.2v18.7h3.5v-31.4h6.6
		l5-27.2h9.7v-7.1h18.4l5.4,25.8h5.7v6.1h3.8v-76.1l5.2-2.1l4.7-17.7h6.1l4.5,16.5l4,2.8v62h4.5l14.9-9.7l10.2,9.5l3.3-0.2
		c0,0,1.9-10.2,4.5-11.1v-22h10.2v20.8c0,0,2.8,1.7,3.3,3.8h2.4v-49.4l9.2-20.3h5.7l8.2,20.4v51.4l15.7-0.1v-17.4l6.9-0.2v17.4h59.6
		V159h-4.5v-4.1h4.5v-26.2h3.7v-12h3.8v-12.9h3.5l12.9-69h0.6V16.7c0.4,0.1,0.6,0.1,0.6,0.1V6h2.5v28.8h0.6l12.6,66.5h2.5v13.2h5v12
		h4.1v24.3h6v4.1h-6v82.9h7.9l16.1-20.8l4.7-38.1h7.6l2.8,13.2l5-7.2v-24h3.5l17-49.5V60.8h3.9v50.3l23.1,52.5v18.7h3.8v10.4h3.3
		v-8.3h6.4v25.1h6.9v12.1l11.8,14.9h8.8v-16.1h10.9v21.3h31.9V230h9v16.5h11.3v-47l7.1-19.2h5l8.5,19.4v7.3h4.5v4.7h-4.3v30.7h24.1
		l15.5,15.5v-57.1l10.8-17.6h4.3l8.7,17.6v80.6h8.1v-10.6h6.6v7.8l16.1,2.4l71.9,1.9v4.7h4.7v-38.1l2.3-0.9v-21h3.8v2.1h3.3
		l9.7-67.8h7.6l13.5,75.2h1.9v-22.4h4l3.5,40.9V287h3.3v-28.8h4.7l2.1,11.3v22.2h2.1v-7.1h36.4v-15.8l2.3-11.7h3.8l2.4,11.8v15.3
		h36.9v-3.3h24.9v12.8h27.4v18.9h47.3V303h15.1v14.2h27.4l8.5,8.5h50.1v-16.1h14.2V338h26.5v-13.2h23.6V338h44.4v14.2h15.1v-35.9
		h10.4v52h27.4v14.2h27.4v17h28.4v-29.3h17v36.9h18.9v-24.6h18v-72.8h8.5v22.7h11.3v56.7h19.9v-30.3h15.1v52h21.7v-34.1h31.2v74.8
		h24.6v-34h16.1v34h11.3v-68.1h17v79.4h25.5v-16.1h27.4v19.9h27.4v-16.1h10.4v35.9h21.7v-50.1h16.1v26.5l10.9,10.9h10.9v-21.3h19.9
		v-23.6l12.8-12.8l9.9,9.9v21.7l16.1,16.1v22.7l8.5,8.5H2994.6z"/>
</g>
</svg>
